<svg xmlns="http://www.w3.org/2000/svg" viewBox="0 0 373.52 160.74"><defs><style>.cls-1{fill:#231f20;}</style></defs><title>logo black_no website</title><g id="Layer_2" data-name="Layer 2"><g id="logo_black" data-name="logo black"><path class="cls-1" d="M108,72.45q0-10.11-8.43-10.1c-1.88,0-3.1.31-3.68.94a3.33,3.33,0,0,0-.41,2.09V83.3a8.87,8.87,0,0,0,1.21.07,13.69,13.69,0,0,0,7.5-2Q108,79,108,72.45m7-.06A11.42,11.42,0,0,1,109.5,82.5a15.84,15.84,0,0,1-8.84,2.27,32.66,32.66,0,0,1-5.16-.46v19a8,8,0,0,0,.14,1.94,1.72,1.72,0,0,0,1.47,1.14,27.14,27.14,0,0,0,3.75.27c.49,0,.74.15.74.47s-.32.67-.94.67H85.26c-1.34,0-2-.23-2-.67s.47-.48,1.41-.48c2.09,0,3.3-.2,3.61-.6.36-.18.56-.62.61-1.34V65.16q0-2.07-1.14-2.55a7.37,7.37,0,0,0-2.34-.26H84.26c-.67,0-1-.18-1-.54s.63-.6,1.88-.6H99.86q7.62,0,11.18,2.68a10,10,0,0,1,4,8.5"/><path class="cls-1" d="M132.39,97.63V92.74q-4.95,1.14-7.09,3a6.17,6.17,0,0,0-2.15,4.92,5.09,5.09,0,0,0,1.23,3.52,3.93,3.93,0,0,0,3.06,1.37c1.9,0,3.41-1.07,4.56-3.21.26-.5.39-2.06.39-4.69m11.79,7.1c0,.75-.79,1.55-2.37,2.37a9.79,9.79,0,0,1-4.56,1.24c-3.07,0-4.66-1.58-4.8-4.75a8.29,8.29,0,0,1-7.86,5,6.74,6.74,0,0,1-4.73-1.71,5.67,5.67,0,0,1-1.86-4.38q0-5.49,6.57-8.7a36.09,36.09,0,0,1,7.82-2.15V89.93q0-5.9-.6-7.77A4.57,4.57,0,0,0,127,78.75,6,6,0,0,0,123.05,80a4,4,0,0,0-1.57,3.21c0,.36.27.54.82.54a1.91,1.91,0,0,1,1.47.8,2.79,2.79,0,0,1,.66,1.81c0,2-1,3-2.92,3a3.34,3.34,0,0,1-2.52-1,3.66,3.66,0,0,1-1-2.64,7.13,7.13,0,0,1,2.47-5.43c1.84-1.65,4.38-2.48,7.64-2.48q7.37,0,9,4a19.93,19.93,0,0,1,.6,6.09v12.52c0,2.06,0,3.26.07,3.62.22,1.61.87,2.41,1.94,2.41a4,4,0,0,0,3.08-1.34c.44-.49.78-.74,1-.74s.34.14.34.41"/><path class="cls-1" d="M162.32,103.79c0,.4-.56,1.11-1.67,2.14a9.84,9.84,0,0,1-6.83,2.61,7.54,7.54,0,0,1-5.56-1.87q-1.06-1.07-1.07-6.28V80.49a.75.75,0,0,0-.74-.74h-2.54c-1,0-1.48-.15-1.48-.47s.25-.49.74-.53a10.3,10.3,0,0,0,8.11-5.15,1.17,1.17,0,0,1,1-.61.41.41,0,0,1,.46.47v1.4a14.62,14.62,0,0,0,.27,3.62,10.52,10.52,0,0,0,2,.13,22.78,22.78,0,0,0,4.89-.33,2.23,2.23,0,0,1,.47-.07c.35,0,.53.2.53.58q0,1-5.42,1h-2.75V92.14q0,9.38.47,11.75a2.77,2.77,0,0,0,3.08,2.38q2.22,0,5-2.48a.79.79,0,0,1,.6-.34c.31,0,.47.12.47.34"/><path class="cls-1" d="M181.33,103.79c0,.4-.56,1.11-1.67,2.14a9.84,9.84,0,0,1-6.83,2.61,7.55,7.55,0,0,1-5.56-1.87q-1.07-1.07-1.07-6.28V80.49a.74.74,0,0,0-.74-.74h-2.54c-1,0-1.47-.15-1.47-.47s.24-.49.73-.53a10.32,10.32,0,0,0,8.12-5.15,1.14,1.14,0,0,1,1-.61.42.42,0,0,1,.47.47v1.4a14.62,14.62,0,0,0,.27,3.62,10.45,10.45,0,0,0,2,.13,22.67,22.67,0,0,0,4.88-.33,2.33,2.33,0,0,1,.47-.07c.36,0,.54.2.54.58q0,1-5.43,1h-2.74V92.14q0,9.38.47,11.75a2.77,2.77,0,0,0,3.08,2.38q2.2,0,4.95-2.48a.79.79,0,0,1,.6-.34c.32,0,.47.12.47.34"/><path class="cls-1" d="M201.28,86.78q-.27-8-5.75-8t-6.77,8Zm5.83,13.66a6,6,0,0,1-1,2.38A15.37,15.37,0,0,1,204,105.6a10.28,10.28,0,0,1-7.7,2.94,13.2,13.2,0,0,1-10.07-4.35,15.19,15.19,0,0,1-4.06-10.78A16.6,16.6,0,0,1,186,82.23a12.16,12.16,0,0,1,9.61-4.49,11.77,11.77,0,0,1,8,2.78A9.67,9.67,0,0,1,207,87.65a33.05,33.05,0,0,1-5.7.27H196.6l-8,.2a28.41,28.41,0,0,0-.33,4.2c0,4.5.86,8,2.58,10.38a8.38,8.38,0,0,0,7.26,3.63,7,7,0,0,0,4.28-1.2,14.75,14.75,0,0,0,3.49-4.62.8.8,0,0,1,.73-.54c.36,0,.54.16.54.47"/><path class="cls-1" d="M231.41,82.43a3.55,3.55,0,0,1-.94,2.54,3.1,3.1,0,0,1-2.41,1,3,3,0,0,1-2-.7,2.28,2.28,0,0,1-.8-1.78,2.35,2.35,0,0,1,.6-1.61c.41-.44.61-.75.61-.93,0-.67-.5-1-1.48-1q-1.87,0-3.21,2.34-1.54,2.73-1.54,10.12V105.6a.93.93,0,0,0,.57,1,17.82,17.82,0,0,0,3.45.27c.49.09.73.27.73.53s-.29.47-.87.47h-13c-.72,0-1.08-.13-1.08-.4s.29-.4.87-.4h.94c1.52,0,2.41-.18,2.68-.54a11.19,11.19,0,0,0,.13-2.49V85.54c0-2.47-.37-3.9-1.1-4.28a8.73,8.73,0,0,0-3.52-.64c-.53,0-.8-.15-.8-.47s.22-.46.67-.46h.47a19.32,19.32,0,0,1,2,.1,5.41,5.41,0,0,1,.87.1,13.12,13.12,0,0,0,5.49-1.41l.87-.4.53-.2a19.32,19.32,0,0,1,.27,3.21v1.34q2.15-4.55,6-4.55a5,5,0,0,1,3.54,1.3,4.26,4.26,0,0,1,1.41,3.25"/><path class="cls-1" d="M264,107.37c0,.34-.34.5-1,.5H250.63c-.59,0-.87-.15-.87-.47a.38.38,0,0,1,.36-.4c.25,0,1.11-.09,2.58-.13.85,0,1.34-.17,1.47-.37a5.92,5.92,0,0,0,.2-2.17V91.51c0-4.86-.17-7.75-.53-8.69a4.43,4.43,0,0,0-4.55-3,6.88,6.88,0,0,0-5.63,2.94,3.89,3.89,0,0,0-.67,2.4V106c0,.54.48.83,1.43.87l2,.07c.46,0,.68.15.68.46s-.26.47-.8.47H234.15c-.66,0-1-.14-1-.41s.4-.45,1.21-.53H236c.67,0,1.07-.15,1.2-.46l.21-1V90.91q0-7.62-.14-8.41c-.09-.54-.65-.81-1.67-.81h-1.94c-.9,0-1.34-.16-1.34-.49s.47-.64,1.4-.64a18.18,18.18,0,0,0,4.35-.74,8.39,8.39,0,0,0,3.29-1.54,1.69,1.69,0,0,1,.93-.54c.31,0,.47.43.47,1.28v3.21a10.86,10.86,0,0,1,9-4.49c3.22,0,5.54,1.19,7,3.55.8,1.34,1.2,3.89,1.2,7.63v15.27a6.43,6.43,0,0,0,.2,2.34,3,3,0,0,0,1.95.4h1.2c.45,0,.67.15.67.44"/><path class="cls-1" d="M69.13,143.33l-3.61-10-3.22-9.28q-2.82,7.41-6.79,19.26Zm18.14,16c0,.38-.34.57-1,.57a10.93,10.93,0,0,1-1.2-.06l-8.5-.27-8.51.27a7.79,7.79,0,0,1-1,.06c-.89,0-1.34-.23-1.34-.7s.6-.77,1.81-.77c3.93,0,5.89-.44,5.89-1.18a4.28,4.28,0,0,0-.14-.52L72.73,155l-.35-.93q-.6-2.07-2.94-9.18H55.13q-4,10.71-4,12.32a1,1,0,0,0,.8,1.14c.13,0,1.25.13,3.35.27,1.29,0,1.94.26,1.94.66s-.58.67-1.74.67c-2.06,0-4.44-.09-7.17-.26-.67,0-1.36-.07-2.07-.07a9.47,9.47,0,0,0-2.08.22,4,4,0,0,1-.87.11q-.93,0-.93-.6c0-.4.7-.63,2.1-.67a6.58,6.58,0,0,0,3-.64A3.8,3.8,0,0,0,49,155.84q8.61-24.72,14-39.71a7.78,7.78,0,0,1,.63-1.77l.28-1.22c.14-.49.31-.74.54-.74s.24.13.33.4q.87,2.61,4,10.91,2.41,6.49,12,32.61a3.19,3.19,0,0,0,1.37,1.93,10.07,10.07,0,0,0,3.45.48q1.74.06,1.74.63"/><path class="cls-1" d="M106.35,141.66c0-4.29-.47-7-1.41-8.24a5.63,5.63,0,0,0-4.62-2.28c-2.41,0-4.33,1.26-5.75,3.75s-2.15,5.85-2.15,10.05a25.66,25.66,0,0,0,1.88,10.31,7.38,7.38,0,0,0,2.38,3,5.36,5.36,0,0,0,3.24,1.17,6.1,6.1,0,0,0,3.75-1.24,5.66,5.66,0,0,0,2.18-3q.5-1.74.5-13.52m9.91,16.8c0,.31-.31.47-.94.47h-2a11.15,11.15,0,0,0-5.56,1.29,4.36,4.36,0,0,1-1.13.52q-.6,0-.6-.81l.06-2.07a9.32,9.32,0,0,1-6.83,2.88A11.59,11.59,0,0,1,90,156.4a16.61,16.61,0,0,1-3.65-11.06q0-6.93,3.65-11.23a11.89,11.89,0,0,1,9.54-4.3,7.75,7.75,0,0,1,6.83,3.28V122.64q0-5.08-.46-6.29c-.27-.67-.66-1-1.19-.94-1.28.14-2,.2-2.31.2-.58,0-.86-.2-.86-.6s.24-.6.73-.6l2.4.06c1.33,0,3.36-.58,6.11-1.87a1.08,1.08,0,0,1,.47-.13c.45,0,.67.53.67,1.6v26.38q0,15.87.26,17c.09.31,1.14.46,3.15.46.63,0,.94.18.94.54"/><path class="cls-1" d="M143.91,131c0,.3-.43.46-1.27.46H141a2.09,2.09,0,0,0-1.88,1.48c-.26.85-.53,1.7-.8,2.55l-5.62,17.31c-.31.89-.76,2.26-1.34,4.09q-1.08,3.69-1.74,3.69c-.31,0-.63-.42-.94-1.27-.22-.54-.45-1.14-.67-1.81q-5.41-14.65-5.49-14.59-3.48-10-4.22-10.91a2.38,2.38,0,0,0-1.87-.54h-1.54c-.45,0-.67-.14-.67-.44s.31-.43.94-.43H128c.45,0,.67.16.67.47s-.69.54-2.07.54-2.08.18-2.08.54a7.07,7.07,0,0,0,.56,2.21q1.1,2.69,4.19,11.51,1.33,3.94,2.2,6,1.88-6,3.35-10.28,3-8.74,3-9.55c0-.4-.34-.6-1-.6h-1.47c-.58,0-.87-.16-.87-.46s.27-.41.81-.41h6.69c1.34,0,2,.09,2,.41"/><path class="cls-1" d="M163.06,138.84q-.27-8-5.76-8t-6.76,8Zm5.82,13.66a6,6,0,0,1-1,2.38,14.6,14.6,0,0,1-2.11,2.78,10.28,10.28,0,0,1-7.7,2.94A13.2,13.2,0,0,1,148,156.25a15.21,15.21,0,0,1-4.05-10.78,16.55,16.55,0,0,1,3.85-11.18,12.13,12.13,0,0,1,9.6-4.48,11.76,11.76,0,0,1,8,2.77,9.67,9.67,0,0,1,3.42,7.13,33,33,0,0,1-5.69.27h-4.69l-8,.2a27.2,27.2,0,0,0-.34,4.21q0,6.74,2.58,10.37a8.39,8.39,0,0,0,7.26,3.63,7,7,0,0,0,4.29-1.2,14.91,14.91,0,0,0,3.48-4.62.81.81,0,0,1,.73-.54c.36,0,.54.16.54.47"/><path class="cls-1" d="M203.09,159.43c0,.34-.33.5-1,.5H189.77c-.58,0-.87-.15-.87-.46a.37.37,0,0,1,.37-.4c.24,0,1.1-.09,2.57-.14.85,0,1.34-.16,1.48-.37a6.18,6.18,0,0,0,.2-2.17V143.57c0-4.85-.18-7.75-.54-8.68a4.41,4.41,0,0,0-4.55-3,6.86,6.86,0,0,0-5.62,2.94,3.84,3.84,0,0,0-.67,2.41v20.83c0,.54.47.83,1.42.87l2.05.07c.45,0,.68.15.68.47s-.27.46-.81.46H173.3c-.67,0-1-.13-1-.41s.41-.45,1.21-.52h1.67c.67,0,1.07-.16,1.21-.47l.2-1V143c0-5.07-.05-7.88-.13-8.41s-.65-.8-1.68-.8h-1.94c-.89,0-1.34-.17-1.34-.5s.47-.64,1.41-.64a18.18,18.18,0,0,0,4.35-.74,8.27,8.27,0,0,0,3.28-1.54,1.65,1.65,0,0,1,.94-.53c.31,0,.47.42.47,1.27v3.21a10.84,10.84,0,0,1,9-4.48q4.82,0,7,3.55c.8,1.33,1.2,3.88,1.2,7.63v15.26a6.17,6.17,0,0,0,.21,2.35,3.05,3.05,0,0,0,1.94.4h1.2c.45,0,.67.14.67.43"/><path class="cls-1" d="M223.65,155.85c0,.4-.56,1.12-1.68,2.14a9.84,9.84,0,0,1-6.83,2.61,7.51,7.51,0,0,1-5.55-1.87c-.72-.71-1.07-2.8-1.07-6.28v-19.9a.75.75,0,0,0-.74-.73h-2.55c-1,0-1.47-.16-1.47-.47s.24-.49.73-.54a10.3,10.3,0,0,0,8.12-5.15,1.18,1.18,0,0,1,1-.61.41.41,0,0,1,.47.47v1.41a14.52,14.52,0,0,0,.27,3.61,10.24,10.24,0,0,0,2,.14,21.8,21.8,0,0,0,4.88-.34,2.33,2.33,0,0,1,.47-.07c.36,0,.54.2.54.58,0,.64-1.81,1-5.42,1h-2.75V144.2q0,9.38.47,11.75a2.77,2.77,0,0,0,3.08,2.38q2.2,0,4.95-2.48a.78.78,0,0,1,.61-.33c.31,0,.47.11.47.33"/><path class="cls-1" d="M255.78,157.52c0,.32-.49.49-1.47.54a24.12,24.12,0,0,0-9.17,2.27,1.11,1.11,0,0,1-.47.14c-.27,0-.4-.18-.4-.54v-3.75a9.93,9.93,0,0,1-8.57,4.29q-4.92,0-7-2.86a5.35,5.35,0,0,1-1-2.19,45.76,45.76,0,0,1-.17-5.39V134.81a7.29,7.29,0,0,0-.27-2.73c-.18-.27-.78-.42-1.8-.47h-.88c-1.2.09-1.8-.09-1.8-.53s.38-.47,1.14-.47,2,.06,3.48.18l1.34.09a32.75,32.75,0,0,0,4.35-.27V149.2q0,5.13.67,6.8,1.06,2.59,4.35,2.6a5.59,5.59,0,0,0,5.22-2.94c.8-1.42,1.21-3.68,1.21-6.79V138.54a21.69,21.69,0,0,0-.2-3.4v-2.2c-.05-.66-.2-1.05-.44-1.17a4.75,4.75,0,0,0-1.51-.16c-1.87,0-2.81-.16-2.81-.6,0-.27.47-.4,1.41-.4H250v18.68a54.71,54.71,0,0,0,.2,6.09c.13.85.48,1.34,1,1.47a20.22,20.22,0,0,0,3.74.2c.53,0,.79.16.79.47"/><path class="cls-1" d="M277.74,134.49a3.57,3.57,0,0,1-.94,2.55,3.14,3.14,0,0,1-2.41,1,3,3,0,0,1-2-.7,2.28,2.28,0,0,1-.8-1.78,2.31,2.31,0,0,1,.6-1.6c.4-.45.61-.76.61-.94,0-.67-.5-1-1.48-1-1.25,0-2.32.77-3.21,2.33q-1.55,2.73-1.54,10.12v13.19c0,.54.19.87.57,1a16.22,16.22,0,0,0,3.45.27c.49.09.73.27.73.53s-.29.47-.87.47h-13c-.71,0-1.07-.13-1.07-.4s.29-.4.87-.4h.94c1.52,0,2.41-.18,2.68-.54a11.19,11.19,0,0,0,.13-2.49V137.6c0-2.47-.37-3.89-1.1-4.28a8.59,8.59,0,0,0-3.52-.63c-.53,0-.8-.16-.8-.47s.22-.47.67-.47h.47a19.32,19.32,0,0,1,2,.1,5.41,5.41,0,0,1,.87.1,13.12,13.12,0,0,0,5.49-1.41l.87-.4.53-.2a19.32,19.32,0,0,1,.27,3.21v1.34q2.14-4.55,6-4.55a5,5,0,0,1,3.54,1.31,4.24,4.24,0,0,1,1.41,3.24"/><path class="cls-1" d="M299,138.84q-.27-8-5.76-8t-6.76,8Zm5.83,13.66a6,6,0,0,1-1,2.38,15.48,15.48,0,0,1-2.11,2.78,10.29,10.29,0,0,1-7.7,2.94,13.21,13.21,0,0,1-10.08-4.35,15.21,15.21,0,0,1-4.05-10.78,16.6,16.6,0,0,1,3.85-11.18,12.15,12.15,0,0,1,9.61-4.48,11.78,11.78,0,0,1,8,2.77,9.63,9.63,0,0,1,3.41,7.13A33,33,0,0,1,299,140h-4.69l-8,.2a28.44,28.44,0,0,0-.33,4.21q0,6.74,2.57,10.37a8.4,8.4,0,0,0,7.27,3.63,7,7,0,0,0,4.28-1.2,14.91,14.91,0,0,0,3.48-4.62.83.83,0,0,1,.74-.54c.36,0,.54.16.54.47"/><path class="cls-1" d="M319.71,106.21a20.92,20.92,0,0,1,3.4,2c-6-10.09-17.11-28.14-25.05-36-2.75-2.73-6.92-3.87-7.29-3.54-.14.12,10.75,19.05,17.91,31.23,4.31,2.66,7.9,4.89,9.91,6.16a2,2,0,0,1,1.12.11"/><path class="cls-1" d="M340.54,133.8c.37.4,2.06,2.24,4.23,4.25,2.89,2.7,6.6,5.81,7.52,7.65s-1,4.05-2.79,5c-1.93,1-4.12-.69-5.65-1.61a18.09,18.09,0,0,1-2.47-1.94,52.75,52.75,0,0,1-6.32-6.65c-.55-.69-1.21-1.54-1.76-2.37-1.29-2-2.11-3.82-.74-6,1.22-1.91,4.82-1.71,8,1.68m-4.36-6.89a29.32,29.32,0,0,1-2.84-1.38,43.09,43.09,0,0,1-4.38-2.71,2.86,2.86,0,0,1-.29-1.39c-2.21.5-3.37.73-4.29-.19a1.88,1.88,0,0,0-1.62-.71,3.78,3.78,0,0,1-2.27-.69,5.77,5.77,0,0,0-.5-.35l3.23,4.83c.47.38,6.63,3.18,6.63,4s-.85,1.84-1.16,3a8.32,8.32,0,0,0,.06,4.09,14.64,14.64,0,0,0,2.33,4.07,53.4,53.4,0,0,0,4.92,5.65c-.1.18-.08.47.34,1,.6.74,4.93,6.48,6.24,7.37,1.14.76,1.68.28,2.35-1a12.47,12.47,0,0,0,3.41,1.08c4.67.71,6.89-4.52,7.05-5.67.22-1.52-.18-2.9-1.57-5a23.14,23.14,0,0,0-1.57-2.23,93.36,93.36,0,0,0-10.65-10.83,11.89,11.89,0,0,0-1.37-1,44.28,44.28,0,0,0-4.05-1.94"/><path class="cls-1" d="M367.63,121.48c3.88,3.66.61,7.92-2.2,8.07-1.21.07-4.36-.56-8-3.22-1.29-.94-2.89-3.66-2.49-5.55.95-4.44,5.06-3.12,6.8-2.58a16.92,16.92,0,0,1,5.92,3.28m-44-6.12a2.25,2.25,0,0,1-3,.09,2,2,0,0,1-.47-2.87,2.24,2.24,0,0,1,3-.08,2,2,0,0,1,.47,2.86m44.08,3.13a30.24,30.24,0,0,0-8.59-3,15.11,15.11,0,0,0-5.36.65c-.83.22-2.69.6-2.72.6-.91,0-6.89-1.54-11.2-1.9-3.05-.26-6.35-.46-9.43-.47a7.23,7.23,0,0,1-2.22-.9c-1.41-1-7-5.43-8.8-6.14a.83.83,0,0,0-.71.1c-6.89-4.38-40.77-26-41-25.83-.39.31,3.34,7.15,24.86,23,7,5.13,16.63,12.63,18.76,14.22,1.08.8,2.16-.34,4.07,1.55.82.82,7.13-2.33,15.7-1.47a33.75,33.75,0,0,1,8.61,2.59,10.17,10.17,0,0,1,3.15,3.15,4.06,4.06,0,0,1,.38,1.19c.15,1.09-.63,2.1-.3,2.8.89,1.83,2.28-.4,3.64.21a18.43,18.43,0,0,0,4.22,2,22.62,22.62,0,0,0,6.15,1.22,6.17,6.17,0,0,0,5.25-2c2.33-2.64,1.3-5.66-.63-8.07a14.34,14.34,0,0,0-3.86-3.53"/><path class="cls-1" d="M124.76,47.69a213.92,213.92,0,0,1,17.82-17.81c1.57-1.39,3.15-2.78,4.76-4.13s3.26-2.67,4.92-4a121,121,0,0,1,10.31-7.34,113.25,113.25,0,0,1,22.78-11,61.49,61.49,0,0,1,12.31-3,40.56,40.56,0,0,1,12.77.24A40,40,0,0,1,222.57,5,59.34,59.34,0,0,1,233,12.49a139.07,139.07,0,0,1,17.23,18.64c5.17,6.65,10.08,13.44,14.91,20.26l14.53,20.48-.28.24c-11.64-12.12-21.8-25.56-32.26-38.5-2.59-3.26-5.26-6.45-8-9.58a112.62,112.62,0,0,0-8.52-8.94,66.12,66.12,0,0,0-9.62-7.52A40.19,40.19,0,0,0,210,2.62a34.93,34.93,0,0,0-12.19-1,46,46,0,0,0-12,2.9C178,7.5,171,12.21,164.3,17c-3.38,2.4-6.71,4.88-10,7.38q-2.49,1.88-4.94,3.81c-1.64,1.29-3.27,2.57-4.89,3.88C137.93,37.29,131.55,42.69,125,48Z"/><path class="cls-1" d="M0,130.35c5.75-5.58,11.47-11.1,17-16.79,1.4-1.42,2.77-2.85,4.14-4.29s2.75-2.87,4.1-4.32l8.13-8.71c5.44-5.8,11-11.56,16-17.76q3.77-4.65,7.3-9.48c2.37-3.21,4.6-6.52,6.91-9.79A237.65,237.65,0,0,1,77.93,39.9,92.23,92.23,0,0,1,86.32,31a37.07,37.07,0,0,1,10.47-6.93,21.63,21.63,0,0,1,12.84-1.21A30.3,30.3,0,0,1,121,28.28C127.6,33.2,132.79,39.46,137.45,46l-.29.24c-1.4-1.43-2.79-2.86-4.21-4.26s-2.88-2.74-4.34-4.07a72.06,72.06,0,0,0-9.29-7.18,29.21,29.21,0,0,0-10.38-4.28,18.47,18.47,0,0,0-5.4-.13,19.28,19.28,0,0,0-5.22,1.47,36.89,36.89,0,0,0-9.44,6.17,91.3,91.3,0,0,0-8.32,8.26c-2.63,2.94-5.17,6-7.72,9L65.2,60.44c-5.06,6.18-10.05,12.42-14.88,18.78S40.84,92.13,35.7,98.29c-2.58,3.07-5.26,6.06-8.07,8.93-1.39,1.44-2.81,2.86-4.23,4.28s-2.91,2.77-4.38,4.13a162.44,162.44,0,0,1-18.79,15Z"/></g></g></svg>